<svg width="32" height="32" viewBox="0 0 32 32" fill="none" xmlns="http://www.w3.org/2000/svg">
<rect width="32" height="32" fill="#9BD7AE"/>
<path d="M16.0039 28C15.5345 28 15.1399 27.8507 14.8199 27.552C14.5212 27.232 14.3719 26.8373 14.3719 26.368V12.128C14.3719 11.6373 14.5212 11.2427 14.8199 10.944C15.1399 10.6453 15.5345 10.496 16.0039 10.496C16.4945 10.496 16.8892 10.6453 17.1879 10.944C17.4865 11.2427 17.6359 11.6373 17.6359 12.128V26.368C17.6359 26.8373 17.4865 27.232 17.1879 27.552C16.8892 27.8507 16.4945 28 16.0039 28ZM16.0039 7.648C15.4279 7.648 14.9265 7.44533 14.4999 7.04C14.0945 6.61333 13.8919 6.112 13.8919 5.536C13.8919 4.96 14.0945 4.46933 14.4999 4.064C14.9265 3.63733 15.4279 3.424 16.0039 3.424C16.5799 3.424 17.0705 3.63733 17.4759 4.064C17.9025 4.46933 18.1159 4.96 18.1159 5.536C18.1159 6.112 17.9025 6.61333 17.4759 7.04C17.0705 7.44533 16.5799 7.648 16.0039 7.648Z" fill="black"/>
</svg>
