<svg width="74" height="24" viewBox="0 0 74 24" fill="none" xmlns="http://www.w3.org/2000/svg">
<path d="M1.96912 23C1.62779 23 1.35283 22.9052 1.14423 22.7156C0.954603 22.507 0.859788 22.232 0.859788 21.8907V8.55022C0.859788 8.20889 0.954603 7.94341 1.14423 7.75378C1.35283 7.54518 1.62779 7.44089 1.96912 7.44089C2.29149 7.44089 2.54749 7.54518 2.73712 7.75378C2.94571 7.94341 3.05001 8.20889 3.05001 8.55022V21.8907C3.05001 22.232 2.94571 22.507 2.73712 22.7156C2.54749 22.9052 2.29149 23 1.96912 23ZM1.94068 4.48266C1.52349 4.48266 1.1632 4.33096 0.859788 4.02755C0.556381 3.72415 0.404677 3.35437 0.404677 2.91822C0.404677 2.44415 0.556381 2.07437 0.859788 1.80889C1.18216 1.52444 1.55194 1.38222 1.96912 1.38222C2.36734 1.38222 2.71816 1.52444 3.02157 1.80889C3.34394 2.07437 3.50512 2.44415 3.50512 2.91822C3.50512 3.35437 3.35342 3.72415 3.05001 4.02755C2.7466 4.33096 2.37683 4.48266 1.94068 4.48266ZM13.6331 23.1422C12.5143 23.1422 11.405 22.9526 10.3051 22.5733C9.20527 22.1941 8.31401 21.6252 7.63135 20.8667C7.42275 20.6391 7.33742 20.3831 7.37535 20.0987C7.41327 19.8142 7.55549 19.5677 7.80201 19.3591C8.06749 19.1695 8.34246 19.0936 8.6269 19.1316C8.91135 19.1695 9.14838 19.2927 9.33801 19.5013C9.79312 20.0323 10.3905 20.44 11.13 20.7244C11.8885 21.0089 12.7229 21.1511 13.6331 21.1511C15.0364 21.1511 16.0509 20.9141 16.6767 20.44C17.3025 19.947 17.6248 19.3591 17.6438 18.6764C17.6438 17.9938 17.3214 17.4344 16.6767 16.9982C16.0319 16.5431 14.97 16.1923 13.4909 15.9458C11.5756 15.6424 10.1724 15.1114 9.28112 14.3529C8.38986 13.5944 7.94423 12.6936 7.94423 11.6507C7.94423 10.6836 8.20023 9.87763 8.71223 9.23289C9.22423 8.58815 9.9069 8.10459 10.7602 7.78222C11.6136 7.45985 12.5522 7.29866 13.5762 7.29866C14.8468 7.29866 15.9371 7.51674 16.8473 7.95289C17.7765 8.38903 18.5256 8.97689 19.0945 9.71644C19.2841 9.96296 19.3599 10.219 19.322 10.4844C19.2841 10.7499 19.1324 10.968 18.8669 11.1387C18.6393 11.2714 18.3739 11.3188 18.0705 11.2809C17.786 11.224 17.5395 11.0818 17.3309 10.8542C16.8568 10.3043 16.3069 9.90607 15.6811 9.65955C15.0553 9.39407 14.3348 9.26133 13.5193 9.26133C12.4764 9.26133 11.642 9.47941 11.0162 9.91555C10.3905 10.3327 10.0776 10.8637 10.0776 11.5084C10.0776 11.9446 10.1913 12.3239 10.4189 12.6462C10.6654 12.9686 11.0731 13.253 11.642 13.4996C12.2299 13.7461 13.0453 13.9547 14.0882 14.1253C15.5105 14.3529 16.6293 14.6942 17.4447 15.1493C18.2791 15.5855 18.8669 16.107 19.2082 16.7138C19.5685 17.3016 19.7487 17.9464 19.7487 18.648C19.7487 19.5393 19.4832 20.3262 18.9522 21.0089C18.4402 21.6726 17.7196 22.1941 16.7905 22.5733C15.8802 22.9526 14.8278 23.1422 13.6331 23.1422ZM30.1896 23.1422C28.6725 23.1422 27.3167 22.8009 26.122 22.1182C24.9273 21.4356 23.9887 20.4969 23.306 19.3022C22.6233 18.1076 22.282 16.7517 22.282 15.2347C22.282 13.6987 22.6233 12.3333 23.306 11.1387C23.9887 9.944 24.9273 9.00533 26.122 8.32266C27.3167 7.64 28.6725 7.29866 30.1896 7.29866C31.7066 7.29866 33.053 7.64 34.2287 8.32266C35.4233 9.00533 36.362 9.944 37.0447 11.1387C37.7273 12.3333 38.0782 13.6987 38.0971 15.2347C38.0971 16.7517 37.7463 18.1076 37.0447 19.3022C36.362 20.4969 35.4233 21.4356 34.2287 22.1182C33.053 22.8009 31.7066 23.1422 30.1896 23.1422ZM30.1896 21.1511C31.2894 21.1511 32.2755 20.8951 33.1478 20.3831C34.0201 19.8711 34.7028 19.1695 35.1958 18.2782C35.6888 17.387 35.9353 16.3724 35.9353 15.2347C35.9353 14.0969 35.6888 13.0824 35.1958 12.1911C34.7028 11.2809 34.0201 10.5698 33.1478 10.0578C32.2755 9.54578 31.2894 9.28978 30.1896 9.28978C29.0897 9.28978 28.1036 9.54578 27.2313 10.0578C26.3591 10.5698 25.6669 11.2809 25.1549 12.1911C24.6619 13.0824 24.4153 14.0969 24.4153 15.2347C24.4153 16.3724 24.6619 17.387 25.1549 18.2782C25.6669 19.1695 26.3591 19.8711 27.2313 20.3831C28.1036 20.8951 29.0897 21.1511 30.1896 21.1511ZM45.2867 23C44.5282 23 43.8455 22.7914 43.2387 22.3742C42.6508 21.957 42.1862 21.3787 41.8449 20.6391C41.5225 19.8996 41.3613 19.0462 41.3613 18.0791V1.86578C41.3613 1.5434 41.4562 1.2874 41.6458 1.09777C41.8544 0.889183 42.1199 0.784887 42.4422 0.784887C42.7646 0.784887 43.0206 0.889183 43.2102 1.09777C43.4188 1.2874 43.5231 1.5434 43.5231 1.86578V18.0791C43.5231 18.8945 43.6843 19.5582 44.0067 20.0702C44.348 20.5822 44.7747 20.8382 45.2867 20.8382H45.9978C46.2822 20.8382 46.5098 20.9425 46.6805 21.1511C46.8511 21.3407 46.9365 21.5967 46.9365 21.9191C46.9365 22.2415 46.8132 22.507 46.5667 22.7156C46.3391 22.9052 46.0357 23 45.6565 23H45.2867ZM55.7245 23.1422C54.1885 23.1422 52.8231 22.8104 51.6285 22.1467C50.4528 21.464 49.5236 20.5253 48.8409 19.3307C48.1772 18.136 47.8453 16.7707 47.8453 15.2347C47.8453 13.6797 48.1582 12.3144 48.784 11.1387C49.4288 9.944 50.3105 9.00533 51.4293 8.32266C52.5482 7.64 53.8376 7.29866 55.2978 7.29866C56.739 7.29866 57.9905 7.63052 59.0525 8.29422C60.1333 8.93896 60.9677 9.8397 61.5556 10.9964C62.1434 12.1532 62.4373 13.4711 62.4373 14.9502C62.4373 15.2536 62.3425 15.5001 62.1529 15.6898C61.9633 15.8604 61.7168 15.9458 61.4134 15.9458H49.3245V14.1253H61.6409L60.4178 15.0071C60.4368 13.9073 60.2376 12.9212 59.8205 12.0489C59.4033 11.1766 58.8059 10.4939 58.0285 10.0009C57.2699 9.50785 56.3597 9.26133 55.2978 9.26133C54.2169 9.26133 53.2688 9.51733 52.4533 10.0293C51.6379 10.5413 51.0027 11.2524 50.5476 12.1627C50.1114 13.0539 49.8933 14.0779 49.8933 15.2347C49.8933 16.3914 50.1399 17.4154 50.6329 18.3067C51.1449 19.1979 51.8371 19.8996 52.7093 20.4116C53.5816 20.9236 54.5867 21.1796 55.7245 21.1796C56.4071 21.1796 57.0898 21.0658 57.7725 20.8382C58.4741 20.5917 59.0335 20.2883 59.4507 19.928C59.6593 19.7573 59.8963 19.672 60.1618 19.672C60.4273 19.653 60.6548 19.7194 60.8445 19.8711C61.091 20.0987 61.2142 20.3452 61.2142 20.6107C61.2332 20.8761 61.1289 21.1037 60.9014 21.2933C60.2756 21.8243 59.4791 22.2699 58.512 22.6302C57.5449 22.9716 56.6157 23.1422 55.7245 23.1422ZM71.8029 23C70.7979 23 69.8971 22.763 69.1007 22.2889C68.3232 21.8148 67.7069 21.1701 67.2518 20.3547C66.7967 19.5203 66.5691 18.5721 66.5691 17.5102V3.60089C66.5691 3.27852 66.6639 3.01303 66.8536 2.80444C67.0622 2.59585 67.3276 2.49155 67.65 2.49155C67.9724 2.49155 68.2379 2.59585 68.4465 2.80444C68.6551 3.01303 68.7593 3.27852 68.7593 3.60089V17.5102C68.7593 18.4773 69.0438 19.2738 69.6127 19.8996C70.1816 20.5064 70.9116 20.8098 71.8029 20.8098H72.5709C72.8743 20.8098 73.1208 20.9141 73.3105 21.1227C73.5001 21.3313 73.5949 21.5967 73.5949 21.9191C73.5949 22.2415 73.4811 22.507 73.2536 22.7156C73.026 22.9052 72.7416 23 72.4002 23H71.8029ZM64.7202 9.91555C64.4358 9.91555 64.1988 9.83022 64.0091 9.65955C63.8195 9.46992 63.7247 9.24237 63.7247 8.97689C63.7247 8.69244 63.8195 8.46489 64.0091 8.29422C64.1988 8.10459 64.4358 8.00978 64.7202 8.00978H71.9736C72.258 8.00978 72.4951 8.10459 72.6847 8.29422C72.8743 8.46489 72.9691 8.69244 72.9691 8.97689C72.9691 9.24237 72.8743 9.46992 72.6847 9.65955C72.4951 9.83022 72.258 9.91555 71.9736 9.91555H64.7202Z" fill="black"/>
</svg>
