<svg width="6" height="25" viewBox="0 0 6 25" fill="none" xmlns="http://www.w3.org/2000/svg">
<path d="M3.00388 25C2.53454 25 2.13988 24.8507 1.81988 24.552C1.52121 24.232 1.37188 23.8373 1.37188 23.368V9.128C1.37188 8.63733 1.52121 8.24266 1.81988 7.944C2.13988 7.64533 2.53454 7.496 3.00388 7.496C3.49454 7.496 3.88921 7.64533 4.18788 7.944C4.48654 8.24266 4.63588 8.63733 4.63588 9.128V23.368C4.63588 23.8373 4.48654 24.232 4.18788 24.552C3.88921 24.8507 3.49454 25 3.00388 25ZM3.00388 4.648C2.42788 4.648 1.92654 4.44533 1.49988 4.04C1.09454 3.61333 0.891875 3.112 0.891875 2.536C0.891875 1.96 1.09454 1.46933 1.49988 1.064C1.92654 0.637333 2.42788 0.424 3.00388 0.424C3.57988 0.424 4.07054 0.637333 4.47588 1.064C4.90254 1.46933 5.11588 1.96 5.11588 2.536C5.11588 3.112 4.90254 3.61333 4.47588 4.04C4.07054 4.44533 3.57988 4.648 3.00388 4.648Z" fill="black"/>
</svg>
